<?xml version="1.0" encoding="utf-8"?>
<!-- Generator: Adobe Illustrator 21.0.0, SVG Export Plug-In . SVG Version: 6.00 Build 0)  -->
<svg version="1.1" id="Layer_1" xmlns="http://www.w3.org/2000/svg" xmlns:xlink="http://www.w3.org/1999/xlink" x="0px" y="0px"
	 viewBox="0 0 190 180" style="enable-background:new 0 0 190 180;" xml:space="preserve">
<style type="text/css">
	.st0{fill:#FFFFFF;}
	.st1{fill:#161D21;}
	.st2{fill:#E6E7E8;}
	.st3{fill:#224294;}
	.st4{fill:#F76031;}
</style>
<g>
	<g>
		
			<rect x="1612.1" y="-93.7" transform="matrix(0.9921 -0.1252 0.1252 0.9921 23.0136 201.4991)" class="st0" width="4" height="22.8"/>
		
			<rect x="1577.7" y="-80.8" transform="matrix(0.889 -0.458 0.458 0.889 207.1898 715.7441)" class="st0" width="4" height="22.8"/>
		
			<rect x="1549.8" y="-57" transform="matrix(0.6787 -0.7344 0.7344 0.6787 532.0636 1125.0115)" class="st0" width="4" height="22.8"/>
		
			<rect x="1531.8" y="-25.1" transform="matrix(0.3881 -0.9216 0.9216 0.3881 951.0822 1405.1747)" class="st0" width="4" height="22.8"/>
		
			<rect x="1525.7" y="11.1" transform="matrix(4.928086e-02 -0.9988 0.9988 4.928086e-02 1429.9554 1547.2706)" class="st0" width="4" height="22.8"/>
		
			<rect x="1523" y="56.6" transform="matrix(0.9549 -0.2968 0.2968 0.9549 51.7497 458.0321)" class="st0" width="22.8" height="4"/>
		
			<rect x="1541.6" y="88.2" transform="matrix(0.7964 -0.6048 0.6048 0.7964 261.7304 957.6965)" class="st0" width="22.8" height="4"/>
		
			<rect x="1730.9" y="45.4" transform="matrix(0.3873 -0.922 0.922 0.3873 1009.4009 1632.4816)" class="st0" width="4" height="22.8"/>
		
			<rect x="1737" y="9.2" transform="matrix(4.843417e-02 -0.9988 0.9988 4.843417e-02 1634.1361 1756.5497)" class="st0" width="4" height="22.8"/>
		
			<rect x="1720.9" y="-17.4" transform="matrix(0.955 -0.2965 0.2965 0.955 82.4693 512.9121)" class="st0" width="22.8" height="4"/>
		
			<rect x="1702.2" y="-49" transform="matrix(0.7963 -0.6049 0.6049 0.7963 377.499 1026.9724)" class="st0" width="22.8" height="4"/>
		
			<rect x="1673.9" y="-72.4" transform="matrix(0.5412 -0.8409 0.8409 0.5412 832.333 1384.8619)" class="st0" width="22.8" height="4"/>
		
			<rect x="1639.4" y="-84.6" transform="matrix(0.2218 -0.9751 0.9751 0.2218 1365.1593 1545.353)" class="st0" width="22.8" height="4"/>
	</g>
	<g>
		<rect x="1650.3" y="113.6" transform="matrix(0.992 -0.126 0.126 0.992 -2.579 209.2576)" class="st0" width="4" height="22.8"/>
		
			<rect x="1684.6" y="100.7" transform="matrix(0.8889 -0.4581 0.4581 0.8889 136.0382 785.1786)" class="st0" width="4" height="22.8"/>
		
			<rect x="1712.5" y="76.9" transform="matrix(0.6787 -0.7344 0.7344 0.6787 486.0304 1287.5696)" class="st0" width="4" height="22.8"/>
		
			<rect x="1569.6" y="111.1" transform="matrix(0.5414 -0.8408 0.8408 0.5414 630.035 1381.1707)" class="st0" width="22.8" height="4"/>
		
			<rect x="1604.2" y="123.3" transform="matrix(0.2208 -0.9753 0.9753 0.2208 1136.6135 1673.3656)" class="st0" width="22.8" height="4"/>
	</g>
</g>
<path class="st1" d="M1835.1,255.1c0,4.1-3.4,7.5-7.5,7.5h-386.3c-4.1,0-7.5-3.4-7.5-7.5v-492.5c0-4.1,3.4-7.5,7.5-7.5h386.3
	c4.1,0,7.5,3.4,7.5,7.5V255.1z"/>
<rect x="1451.6" y="-224.4" class="st0" width="366.2" height="463.8"/>
<g>
	<g>
		<polygon class="st2" points="1743.7,-224.4 1450.1,-224.4 1450.1,187.3 1818.8,187.3 1818.8,-149.3 		"/>
	</g>
	<g>
		<polygon class="st0" points="1743.7,-224.4 1450.1,-224.4 1450.1,242 1818.8,242 1818.8,-149.3 1743.7,-149.3 		"/>
	</g>
</g>
<rect x="1450.1" y="-224.4" class="st3" width="293.6" height="21.6"/>
<g>
	<g>
		<g>
			<rect x="1509.5" y="35.7" class="st3" width="23.9" height="30.2"/>
			<rect x="1540.1" y="11.8" class="st4" width="23.9" height="54.1"/>
			<rect x="1571.8" y="-15.9" class="st3" width="24" height="81.9"/>
			<rect x="1602.7" y="-2.4" class="st4" width="23.9" height="68.3"/>
		</g>
	</g>
	<g>
		<g>
			<rect x="1632.4" y="-19.8" class="st3" width="23.9" height="85.7"/>
			<rect x="1663" y="-43.8" class="st4" width="23.9" height="109.7"/>
			<rect x="1694.7" y="-100.1" class="st3" width="23.9" height="166.1"/>
			<rect x="1725.6" y="-72.6" class="st4" width="23.9" height="138.6"/>
		</g>
	</g>
</g>
<g>
	<polygon class="st2" points="1690.2,178.6 1638.1,178.6 1621,178.6 1575.5,178.6 1506.3,178.6 1506.3,162.5 1575.5,162.5 
		1621,162.5 1638.1,162.5 1690.2,162.5 1752.8,162.5 1752.8,178.6 	"/>
	<rect x="1506.3" y="106.1" class="st2" width="114.7" height="16.1"/>
	<polygon class="st2" points="1638.1,149.4 1621,149.4 1575.5,149.4 1506.3,149.4 1506.3,133.3 1575.5,133.3 1621,133.3 
		1638.1,133.3 1690.2,133.3 1752.8,133.3 1752.8,149.4 1690.2,149.4 	"/>
</g>
<g>
	<rect x="1302.7" y="-29.6" class="st3" width="212.8" height="309.1"/>
	<g>
		<g>
			<g>
				<rect x="1320.6" y="69.5" class="st0" width="28.8" height="28.8"/>
				<rect x="1320.6" y="120.8" class="st0" width="28.8" height="28.8"/>
				<rect x="1320.6" y="172.2" class="st0" width="28.8" height="28.8"/>
				<rect x="1320.6" y="223.6" class="st0" width="28.8" height="28.8"/>
			</g>
			<g>
				<rect x="1370" y="69.5" class="st0" width="28.8" height="28.8"/>
				<rect x="1370" y="120.8" class="st0" width="28.8" height="28.8"/>
				<rect x="1370" y="172.2" class="st0" width="28.8" height="28.8"/>
				<rect x="1370" y="223.6" class="st0" width="28.8" height="28.8"/>
			</g>
			<g>
				<rect x="1419.4" y="69.5" class="st0" width="28.8" height="28.8"/>
				<rect x="1320.6" y="56.7" class="st0" width="28.8" height="3.9"/>
				<rect x="1370" y="56.7" class="st0" width="28.8" height="3.9"/>
				<rect x="1419.4" y="56.7" class="st0" width="28.8" height="3.9"/>
				<rect x="1419.4" y="120.8" class="st0" width="28.8" height="28.8"/>
				<rect x="1419.4" y="172.2" class="st0" width="28.8" height="28.8"/>
				<rect x="1419.4" y="223.6" class="st0" width="28.8" height="28.8"/>
			</g>
			<g>
				<rect x="1468.7" y="69.5" class="st0" width="28.8" height="28.8"/>
				<rect x="1468.7" y="120.8" class="st0" width="28.8" height="28.8"/>
				<rect x="1468.8" y="172.2" class="st0" width="28.8" height="80.2"/>
			</g>
		</g>
		<rect x="1317.9" y="-8.3" class="st0" width="182.4" height="53.5"/>
	</g>
	<ellipse class="st0" cx="1482.6" cy="58.7" rx="4.9" ry="4.9"/>
</g>
<g>
	<g>
		<g>
			
				<rect x="109.6" y="52.5" transform="matrix(0.9921 -0.1252 0.1252 0.9921 -6.1901 14.2544)" class="st0" width="1.3" height="7.7"/>
			<rect x="98" y="56.8" transform="matrix(0.889 -0.458 0.458 0.889 -16.8459 51.9224)" class="st0" width="1.3" height="7.7"/>
			
				<rect x="88.6" y="64.9" transform="matrix(0.6787 -0.7344 0.7344 0.6787 -21.8272 87.623)" class="st0" width="1.3" height="7.7"/>
			
				<rect x="82.5" y="75.7" transform="matrix(0.3881 -0.9216 0.9216 0.3881 -22.4509 125.2883)" class="st0" width="1.3" height="7.7"/>
			
				<rect x="80.4" y="87.9" transform="matrix(4.928086e-02 -0.9988 0.9988 4.928086e-02 -14.5807 168.2444)" class="st0" width="1.4" height="7.7"/>
			
				<rect x="79.5" y="103.3" transform="matrix(0.9549 -0.2968 0.2968 0.9549 -27.1022 29.4207)" class="st0" width="7.7" height="1.3"/>
			
				<rect x="85.8" y="114" transform="matrix(0.7964 -0.6048 0.6048 0.7964 -51.0917 77.5677)" class="st0" width="7.7" height="1.3"/>
			
				<rect x="149.8" y="99.5" transform="matrix(0.3873 -0.922 0.922 0.3873 -3.1288 202.0411)" class="st0" width="1.3" height="7.7"/>
			
				<rect x="151.8" y="87.3" transform="matrix(4.843417e-02 -0.9988 0.9988 4.843417e-02 54.0651 239.0388)" class="st0" width="1.3" height="7.7"/>
			
				<rect x="146.4" y="78.3" transform="matrix(0.955 -0.2965 0.2965 0.955 -16.6541 48.0911)" class="st0" width="7.7" height="1.3"/>
			
				<rect x="140.1" y="67.6" transform="matrix(0.7963 -0.6049 0.6049 0.7963 -11.9792 100.9668)" class="st0" width="7.7" height="1.3"/>
			
				<rect x="130.5" y="59.7" transform="matrix(0.5412 -0.8409 0.8409 0.5412 10.8632 140.6824)" class="st0" width="7.7" height="1.3"/>
			
				<rect x="118.8" y="55.6" transform="matrix(0.2218 -0.9751 0.9751 0.2218 40.6153 163.389)" class="st0" width="7.7" height="1.3"/>
		</g>
		<g>
			
				<rect x="122.5" y="122.6" transform="matrix(0.992 -0.126 0.126 0.992 -14.9532 16.5348)" class="st0" width="1.3" height="7.7"/>
			
				<rect x="134.1" y="118.2" transform="matrix(0.8889 -0.4581 0.4581 0.8889 -40.953 75.3215)" class="st0" width="1.4" height="7.7"/>
			
				<rect x="143.5" y="110.2" transform="matrix(0.6787 -0.7344 0.7344 0.6787 -37.4052 142.5605)" class="st0" width="1.3" height="7.7"/>
			
				<rect x="95.2" y="121.7" transform="matrix(0.5414 -0.8408 0.8408 0.5414 -57.4654 139.4559)" class="st0" width="7.7" height="1.3"/>
			
				<rect x="106.9" y="125.9" transform="matrix(0.2208 -0.9753 0.9753 0.2208 -37.0941 206.6456)" class="st0" width="7.7" height="1.3"/>
		</g>
	</g>
	<path class="st1" d="M185,170.4c0,1.4-1.1,2.5-2.5,2.5H51.9c-1.4,0-2.5-1.1-2.5-2.5V3.9c0-1.4,1.1-2.5,2.5-2.5h130.6
		c1.4,0,2.5,1.1,2.5,2.5V170.4z"/>
	<rect x="55.3" y="8.3" class="st0" width="123.8" height="156.8"/>
	<g>
		<g>
			<polygon class="st2" points="154.1,8.3 54.8,8.3 54.8,147.5 179.5,147.5 179.5,33.7 			"/>
		</g>
		<g>
			<polygon class="st0" points="154.1,8.3 54.8,8.3 54.8,166 179.5,166 179.5,33.7 154.1,33.7 			"/>
		</g>
	</g>
	<rect x="54.8" y="8.3" class="st3" width="99.3" height="7.3"/>
	<g>
		<g>
			<g>
				<rect x="74.9" y="96.2" class="st3" width="8.1" height="10.2"/>
				<rect x="85.3" y="88.2" class="st4" width="8.1" height="18.3"/>
				<rect x="96" y="78.8" class="st3" width="8.1" height="27.7"/>
				<rect x="106.4" y="83.4" class="st4" width="8.1" height="23.1"/>
			</g>
		</g>
		<g>
			<g>
				<rect x="116.5" y="77.5" class="st3" width="8.1" height="29"/>
				<rect x="126.8" y="69.4" class="st4" width="8.1" height="37.1"/>
				<rect x="137.5" y="50.3" class="st3" width="8.1" height="56.1"/>
				<rect x="148" y="59.6" class="st4" width="8.1" height="46.9"/>
			</g>
		</g>
	</g>
	<g>
		<polygon class="st2" points="136,144.5 118.4,144.5 112.6,144.5 97.2,144.5 73.8,144.5 73.8,139.1 97.2,139.1 112.6,139.1 
			118.4,139.1 136,139.1 157.2,139.1 157.2,144.5 		"/>
		<rect x="73.8" y="120" class="st2" width="38.8" height="5.4"/>
		<polygon class="st2" points="118.4,134.7 112.6,134.7 97.2,134.7 73.8,134.7 73.8,129.2 97.2,129.2 112.6,129.2 118.4,129.2 
			136,129.2 157.2,129.2 157.2,134.7 136,134.7 		"/>
	</g>
	<g>
		<rect x="5" y="74.2" class="st3" width="71.9" height="104.5"/>
		<g>
			<g>
				<g>
					<rect x="11.1" y="107.7" class="st0" width="9.7" height="9.7"/>
					<rect x="11.1" y="125" class="st0" width="9.7" height="9.7"/>
					<rect x="11.1" y="142.4" class="st0" width="9.7" height="9.7"/>
					<rect x="11.1" y="159.7" class="st0" width="9.7" height="9.7"/>
				</g>
				<g>
					<rect x="27.8" y="107.7" class="st0" width="9.7" height="9.7"/>
					<rect x="27.8" y="125" class="st0" width="9.7" height="9.7"/>
					<rect x="27.8" y="142.4" class="st0" width="9.7" height="9.7"/>
					<rect x="27.8" y="159.7" class="st0" width="9.7" height="9.7"/>
				</g>
				<g>
					<rect x="44.5" y="107.7" class="st0" width="9.7" height="9.7"/>
					<rect x="11.1" y="103.3" class="st0" width="9.7" height="1.3"/>
					<rect x="27.8" y="103.3" class="st0" width="9.7" height="1.3"/>
					<rect x="44.5" y="103.3" class="st0" width="9.7" height="1.3"/>
					<rect x="44.5" y="125" class="st0" width="9.7" height="9.7"/>
					<rect x="44.5" y="142.4" class="st0" width="9.7" height="9.7"/>
					<rect x="44.5" y="159.7" class="st0" width="9.7" height="9.7"/>
				</g>
				<g>
					<rect x="61.1" y="107.6" class="st0" width="9.7" height="9.7"/>
					<rect x="61.1" y="125" class="st0" width="9.7" height="9.7"/>
					<rect x="61.1" y="142.4" class="st0" width="9.7" height="27.1"/>
				</g>
			</g>
			<rect x="10.1" y="81.4" class="st0" width="61.7" height="18.1"/>
		</g>
		<ellipse class="st0" cx="65.8" cy="104" rx="1.6" ry="1.6"/>
	</g>
</g>
</svg>
