<?xml version="1.0" encoding="utf-8"?>
<!-- Generator: Adobe Illustrator 21.0.0, SVG Export Plug-In . SVG Version: 6.00 Build 0)  -->
<svg version="1.1" id="Layer_1" xmlns="http://www.w3.org/2000/svg" xmlns:xlink="http://www.w3.org/1999/xlink" x="0px" y="0px"
	 viewBox="0 0 80 84" style="enable-background:new 0 0 80 84;" xml:space="preserve">
<style type="text/css">
	.st0{fill:#224294;}
</style>
<g>
	<path class="st0" d="M157.2-8c-2,0-3.8,1.4-5.5,4c-8.7,6.6-22.6,22-35.1,22h-19c-4.4,0-8,3.6-8,8v12c0,4.1,3.1,7.4,7,7.9V68
		c0,2.2,1.8,4,4,4h10V46h6c12.5,0,26.3,15.3,35.1,22c1.7,2.6,3.5,4,5.5,4c6.9,0,12.5-17.9,12.5-40S164.2-8,157.2-8z M157.2,70
		c-3.9,0-9.3-11.6-10.3-31h8.8c2.8,0,5-2.2,5-5v-4c0-2.8-2.2-5-5-5h-8.8c1.1-19.4,6.4-31,10.3-31c4.4,0,10.5,14.5,10.5,38
		S161.6,70,157.2,70z M98.7,68V46h10v24h-8C99.6,70,98.7,69.1,98.7,68z M91.7,26c0-3.3,2.7-6,6-6h17v24h-17l0,0c-3.3,0-6-2.7-6-6V26
		z M157.8,27.9c0.5,0.5,0.9,1.3,0.9,2.1v4c0,0.8-0.3,1.6-0.9,2.1c-0.5,0.5-1.3,0.9-2.1,0.9h-9V27h9C156.5,27,157.3,27.3,157.8,27.9z
		 M144.9,25l-0.2,5h-28V20c10.3,0,21-9.3,29.6-16.8c1.1-0.9,2.2-1.9,3.3-2.8C147.2,6.3,145.4,15,144.9,25z M116.7,32h28l0.2,7
		c0.6,10,2.3,18.7,4.7,24.6c-1.1-0.9-2.2-1.9-3.3-2.8c-8.6-7.5-19.2-16.8-29.6-16.8V32L116.7,32z"/>
	<rect x="95.7" y="23" class="st0" width="14" height="2"/>
	<rect x="95.7" y="27" class="st0" width="14" height="2"/>
</g>
<path class="st0" d="M66.1,0.9h-10H23.9c0,0,0,0,0,0c0,0,0,0,0,0h-10c-0.8,0-1.4,0.6-1.4,1.4v15.5c0,6.1,4.8,11,10.8,11.3
	c2,6.8,8.1,11.9,15.4,12.5V52c-4.6,0.5-8.3,3.5-8.7,7.2h-3.9c-0.8,0-1.4,0.6-1.4,1.4v14.5h-1.3c-0.8,0-1.4,0.6-1.4,1.4v5.3
	c0,0.8,0.6,1.4,1.4,1.4h33c0.8,0,1.4-0.6,1.4-1.4v-5.3c0-0.8-0.6-1.4-1.4-1.4h-1.3V60.6c0-0.8-0.6-1.4-1.4-1.4h-3.8
	c-0.4-3.7-4-6.7-8.7-7.2V41.6c7.3-0.6,13.4-5.6,15.4-12.5c5.9-0.3,10.7-5.3,10.7-11.3V2.3C67.5,1.5,66.9,0.9,66.1,0.9z M22.5,26.3
	c-4.1-0.7-7.2-4.2-7.2-8.5V3.6h7.2V26.3z M55.1,80.4H24.9v-2.5h1.3h27.7h1.3V80.4z M52.5,75.1h-25V62h25
	C52.5,62,52.5,75.1,52.5,75.1z M47.3,59.2H32.8c0.5-2.6,3.6-4.6,7.3-4.6S46.8,56.6,47.3,59.2z M40,38.9c-8.1,0-14.8-6.6-14.8-14.8
	V3.6h29.5v20.5C54.8,32.3,48.2,38.9,40,38.9z M64.8,17.8c0,4.3-3.1,7.8-7.2,8.5v-2.1c0,0,0,0,0-0.1V3.6h7.2V17.8z"/>
</svg>
