<?xml version="1.0" encoding="utf-8"?>
<!-- Generator: Adobe Illustrator 21.0.0, SVG Export Plug-In . SVG Version: 6.00 Build 0)  -->
<svg version="1.1" id="Layer_1" xmlns="http://www.w3.org/2000/svg" xmlns:xlink="http://www.w3.org/1999/xlink" x="0px" y="0px"
	 viewBox="0 0 268 193.9" style="enable-background:new 0 0 268 193.9;" xml:space="preserve">
<style type="text/css">
	.st0{fill:#FFFFFF;}
</style>
<g>
	<path class="st0" d="M91.4,107.1c-0.6-3.4-0.9-6.3-1.7-9.1c-1.1-4.1-3.6-6.7-8-6.8c-0.1-0.2-0.3-0.3-0.3-0.4
		c-0.5-5.4-6.8-7.7-10.7-3.7c-2.4,2.4-4.7,5-7.1,7.4c-2.2,2.2-4.4,4.5-6.7,6.6c-0.7,0.7-1.6,1.1-2.6,1.7c-0.9-1.5-1.5-2.9-2.4-4.1
		c-3.3-4.5-6.6-9.1-10.1-13.5c-3.3-4.1-6.7-8.2-8.8-13.2c-0.5-1.2-0.4-2.2,0.4-3.3c3.5-5,7.8-9.3,12.6-13c0.4-0.3,0.8-0.5,1.6-0.4
		c-0.7,1.6-1.5,3.2-2.1,4.9c-0.2,0.5-0.2,1.1-0.2,1.6c0.5-0.1,1,0,1.5-0.2c3.7-1.8,6.2-4.7,6.8-8.9c0.2-1.6,0.9-2.6,2.3-3.4
		c1.4-0.7,2.6-1.7,3.7-3c-1.8,0.9-3.6,1.9-5.4,2.8c-1.7-6.2-5.6-9-12.5-8.6c2.2-1.3,3.9-2.4,5.7-3.3c13.6-7,28-12,42.6-16.2
		c12.5-3.6,25.1-6.4,38-7.9c14-1.7,28-3.4,42.2-2.9c18,0.6,35.6,3,52.3,10.1c16.5,7,30,17.7,38.4,33.8c9.8,18.7,9,37.7,0.5,56.7
		c-0.9,2.1-2.8,3.7-4.5,5.3c-0.5,0.5-2,0.5-2.7,0.1c-0.5-0.3-0.5-1.7-0.3-2.5c1.1-3.9,2.5-7.8,3.6-11.7c1.5-4.9,2.5-9.8,1.3-14.9
		c-0.6-2.3-1.7-4.6-3.2-6.4c-2.8-3.4-5.8-3.1-8.4,0.5c-0.5,0.7-0.9,1.5-1.4,2.4c-1.1-0.7-2.3-1.4-3.5-2.1c-3.9-2.4-7.7-2-11.5,0.6
		c-6.3,4.3-9.8,10.4-11.1,17.8c-0.5,3.3-1.8,6.2-3.5,8.9c-1.7,2.6-3.4,5.2-5.3,7.6c-0.7,1-1.9,1.6-2.8,2.4c-0.2-0.1-0.5-0.1-0.7-0.2
		c-0.5-2.5-1.3-4.9-1.3-7.4c0-10,0.3-20,0.4-30c0-1.5,0.5-2.1,1.9-2.4c2.1-0.4,4.2-1,6.2-1.7c0.9-0.3,1.8-1,2.5-1.7
		c0.4-0.4,0.5-1.3,0.3-1.8c-0.2-0.4-1.1-0.5-1.6-0.6c-2.7-0.1-5.3,0-8-0.1c-1.4,0-2.1-0.7-1.9-2.4c0.4-4.4-1.2-8.3-3.6-11.9
		c-0.5-0.8-1.4-1.5-2.3-1.8c-2.5-1.1-3.8-0.3-3.9,2.4c-0.1,3.9,0,7.8,0,11.7c0,1,0,2,0,3.1c-1.8-0.1-3.6-0.3-5.3-0.2
		c-1.6,0-3.2,0.2-4.8,0.5c-0.6,0.1-1.5,0.8-1.5,1.1c0.1,0.7,0.6,1.6,1.1,1.8c2.9,1.4,5.9,2.4,9.1,1.7c0.4-0.1,0.8-0.1,1.3-0.2
		c0,1.9,0.1,3.8,0,5.6c-0.2,4.2-0.5,8.3-0.8,12.5c0,0.6-0.3,1.4-0.7,1.7c-6.2,5.2-12.4,10.3-18.7,15.3c-1,0.8-2.3,1.3-3.6,1.8
		c-1.6,0.6-3.5,0.7-4.5-0.7c-0.9-1.3-1.2-3.2-1.6-4.8c0-0.2,1.3-1,2.1-1.1c8.9-2,14.7-7.6,18.3-15.6c2-4.4,0.7-9.1-4-11.3
		c-4.3-2-8.4-1.9-12.4,0.3c-7,3.8-12.7,9-14.5,17.1c-1.3,5.6-4.4,10.2-7.7,14.6c-0.7,1-1.8,1.6-2.8,2.4c-0.2-0.1-0.4-0.2-0.6-0.4
		c0.2-4.2,0.5-8.4,0.6-12.6c0.1-4,0.1-7.9-0.2-11.9c-0.1-1.4-0.8-3-1.7-4.2c-2.4-3.1-6.8-2.8-8.2,0.8c-1.2,3.2-2,6.7-2.1,10.1
		c-0.1,3.1-0.9,5.3-3.3,7.2c-2.7,2.1-5.1,4.5-7.8,6.7c-1.2,1-2.5,1.8-3.9,2.5c-3.6,1.7-7-0.1-7.5-4c-1-8.2,1.1-15.9,5.4-22.9
		c0.7-1.2,2.2-2.2,3.5-2.9c0.9-0.4,2.2-0.3,3.2,0c1.6,0.5,2.6,0.1,2.7-1.6c0.1-1.9-0.5-3.5-2.2-4.5c-2.4-1.5-5-1.9-7.7-0.6
		C106,82.8,99.9,89.7,98,100.1c-0.1,0.8-0.6,1.7-1.2,2.2C95.1,104,93.2,105.5,91.4,107.1z M219.9,63c0.7,0.4,1.2,0.7,1.7,0.9
		c6.4,2.1,12.8,4.3,19.3,6.3c5.7,1.7,11.4,1.1,16.8-1.6c0.8-0.4,1.4-1.3,2-2c-0.8-0.5-1.5-1.3-2.4-1.4c-6.8-1-13.2-3.5-19.5-6
		c-6.2-2.5-11.8-0.4-17.2,2.8C220.4,62.1,220.3,62.5,219.9,63z M145,76c0-2.8-1.9-4.8-4.8-4.9c-2.6-0.1-4.7,2.1-4.6,4.8
		c0,2.3,2.3,5.4,4.1,5.4C142.6,81.2,145,78.8,145,76z"/>
	<path class="st0" d="M54.3,162c9-8,18.8-13.5,29.7-16.9c11.1-3.5,22.6-4.6,34.2-4.6c12.9,0,25.7,1.5,38.5,3.1
		c18.1,2.3,36.1,4.6,54.4,4.5c6.2,0,12.5-0.7,18.7-1.1c0.7,0,1.3-0.1,2.1,0.1c-21.3,17.2-45.5,27.8-72.5,31.9
		C122.8,184.6,87.6,180.1,54.3,162z"/>
	<path class="st0" d="M34,146.5c5.4-1.8,10.1-3.9,14.2-7.3c5.7-4.7,8.8-10.8,8.8-18.2c0-3.7-0.6-7.5-0.8-11.2c0-0.7,0.2-1.5,0.7-2
		c0.8-0.9,1.9-1.6,3-2.6c0.1,1.4,0.1,2.5,0.3,3.6c0.6,5.4,3.8,9.2,7.9,12.4c5.4,4.2,17.8,2.3,21.2-5.5c1.6-3.7,4.5-6.1,7.3-8
		c1.2,3,2.5,6.1,3.7,9.1c2.5,6.1,7.3,7,12.7,6.2c6.9-1,12.4-4.6,17.3-9.3c0.7-0.7,1.3-1.4,2.2-2.4c0.4,1.9,0.7,3.5,1,5
		c0.8,3.1,2.1,6,5.6,6.7c3.7,0.8,7.3,0.4,9.8-3c2.2-3,4.2-6,6.3-9.1c0.1,0.6,0.3,1.2,0.5,1.9c1.7,7.2,6.9,10.6,14.2,9
		c2.6-0.6,5.3-1.4,7.3-3c5.4-4.2,10.5-8.9,15.7-13.5c0.5-0.5,0.9-1.2,1.3-1.7c0.2,0.1,0.3,0.2,0.5,0.3c-0.2,3-0.3,6.1-0.5,9.1
		c-0.3,3.7,0.3,7.1,3.6,9.2c3.6,2.4,7.6,3.3,11.9,1.7c0.6-0.2,1.2-0.8,1.7-1.4c2.7-3.3,5.4-6.6,8.2-10.1c0.5,1,0.9,2.1,1.5,3.2
		c2,3.9,4.8,6.8,9.5,7.3c3.3,0.4,6-0.7,8.2-3.1c1.8-2,3.3-4.2,5-6.4c2,4.5,3.1,10,9.5,11c-1,1.8-2.1,3.2-4.1,4
		c-10.8,4.4-22,6.7-33.6,7.5c-14.9,1-29.7-0.5-44.4-2.4c-14.5-1.8-29-3.9-43.6-5.1c-21.7-1.8-43.1-0.1-63.7,7.8
		c-8.4,3.2-16.2,7.5-23.3,13c-1.4,1.1-2.3,1.2-3.5-0.1C36.2,148.4,35.2,147.6,34,146.5z"/>
	<path class="st0" d="M18.4,63.7c1,3.8,1.8,7.8,3.1,11.5c0.7,2,2.2,3.8,3.4,5.7c0.9,1.3,1,2.4,0.8,4c-0.6,3.8-0.9,7.7-0.9,11.6
		c0.5-4.1,0.9-8.3,1.4-12.4c0.3-0.1,0.6-0.1,0.9-0.2c2.4,4.9,5,9.7,7.2,14.7c1.3,3.1,1.9,6.5,2.8,9.8c0.4,1.4-0.1,2.3-1.6,2.9
		c-5.7,2.3-10.9,5.5-14.6,10.6c-1,1.3-1.8,2.8-2.6,4.2C6.7,107.4,6.5,81.7,18.4,63.7z"/>
	<path class="st0" d="M231.6,107.4c0.7-5.4,1.4-10.4,3.6-15c0.3-0.7,0.8-1.4,1.3-2c1.5-1.9,3.5-2.4,5.3-1.6c1.6,0.8,3.1,3.5,2.6,5.3
		c-1.7,5.6-3.4,11.3-5.3,16.9c-0.4,1.2-1.2,2.3-2,3.2c-1.5,1.7-3.7,1.3-4.4-0.9C232.2,111.2,232,109.1,231.6,107.4z"/>
	<path class="st0" d="M38.3,117.5c-0.4,3.5-0.5,7.1-1.3,10.5c-0.9,4-3.6,6.6-7.7,7.8c-3.5,1-6-1.2-5.6-4.8c0.4-3,1.7-5.6,4-7.4
		c3-2.4,6.3-4.4,9.5-6.6C37.6,117.1,38,117.3,38.3,117.5z"/>
	<path class="st0" d="M32.3,68.6C31.6,61.3,33.9,55,39.2,50c0.9-0.9,2.3-1.3,3.6-1.7c1.7-0.4,3.4-0.4,4.4,1.5
		c0.9,1.8,0.3,3.5-1.4,4.8C40.6,58.7,36.1,63.2,32.3,68.6z"/>
	<path class="st0" d="M166.4,103.7c1.7-4.6,3.2-8.7,6.1-11.9c0.8-0.9,1.7-1.7,2.7-2.4c2.5-1.6,4.8-0.6,5,2.4c0.1,1.3-0.1,3-0.9,4
		C176.3,100.1,171.4,101.6,166.4,103.7z"/>
	<path class="st0" d="M86,107.6c-4.3,0.7-9.3-2.9-9.9-7c0-0.3,0-0.8,0.1-0.9c2-1.6,4-3.3,6.3-4.5c1.2-0.7,3.2,0.9,3.4,2.9
		C86.2,101.2,86,104.4,86,107.6z"/>
	<path class="st0" d="M83,112.3c-0.8,1.5-2.9,2.2-5.2,1.5c-2-0.6-3.2-3.3-3-6.5C77.4,108.9,80.2,110.6,83,112.3z"/>
</g>
</svg>
