<?xml version="1.0" encoding="utf-8"?>
<!-- Generator: Adobe Illustrator 21.0.0, SVG Export Plug-In . SVG Version: 6.00 Build 0)  -->
<svg version="1.1" id="Layer_1" xmlns="http://www.w3.org/2000/svg" xmlns:xlink="http://www.w3.org/1999/xlink" x="0px" y="0px"
	 viewBox="0 0 80 84" style="enable-background:new 0 0 80 84;" xml:space="preserve">
<style type="text/css">
	.st0{fill:#224294;}
</style>
<g>
	<path class="st0" d="M67.5,0c-2,0-3.8,1.4-5.5,4c-8.7,6.6-22.6,22-35.1,22h-19c-4.4,0-8,3.6-8,8v12c0,4.1,3.1,7.4,7,7.9V76
		c0,2.2,1.8,4,4,4h10V54h6C39.4,54,53.2,69.3,62,76c1.7,2.6,3.5,4,5.5,4C74.4,80,80,62.1,80,40C80,17.9,74.5,0,67.5,0z M67.5,78
		c-3.9,0-9.3-11.6-10.3-31H66c2.8,0,5-2.2,5-5v-4c0-2.8-2.2-5-5-5h-8.8c1.1-19.4,6.4-31,10.3-31C71.9,2,78,16.5,78,40
		S71.9,78,67.5,78z M9,76V54h10v24h-8C9.9,78,9,77.1,9,76z M2,34c0-3.3,2.7-6,6-6h17v24H8l0,0c-3.3,0-6-2.7-6-6V34z M68.1,35.9
		c0.5,0.5,0.9,1.3,0.9,2.1v4c0,0.8-0.3,1.6-0.9,2.1C67.6,44.6,66.8,45,66,45h-9V35h9C66.8,35,67.6,35.3,68.1,35.9z M55.2,33L55,38
		H27V28c10.3,0,21-9.3,29.6-16.8c1.1-0.9,2.2-1.9,3.3-2.8C57.5,14.3,55.7,23,55.2,33z M27,40h28l0.2,7c0.6,10,2.3,18.7,4.7,24.6
		c-1.1-0.9-2.2-1.9-3.3-2.8C48,61.3,37.4,52,27,52L27,40L27,40z"/>
	<rect x="6" y="31" class="st0" width="14" height="2"/>
	<rect x="6" y="35" class="st0" width="14" height="2"/>
</g>
</svg>
